<svg width="1292" height="826" viewBox="0 0 1292 826" fill="none" xmlns="http://www.w3.org/2000/svg">
<path d="M640.808 0.350593C591.741 6.35059 552.941 34.2173 524.141 83.9506C517.475 95.2839 517.341 95.4173 508.008 99.4173C485.741 108.884 460.408 115.817 441.475 117.551C434.675 118.217 429.741 117.951 423.208 116.217C418.275 115.017 412.941 114.217 411.341 114.484C403.608 115.551 399.608 130.884 402.141 149.817C405.741 176.884 418.808 203.151 437.608 221.017C452.408 235.017 462.541 240.484 488.275 248.751C521.208 259.284 541.608 274.617 552.941 297.417L558.541 308.751L565.341 310.217C584.408 314.617 607.208 313.151 619.875 306.884C623.341 305.017 626.141 304.217 626.141 304.884C626.141 307.284 608.141 321.151 599.208 325.684C589.208 330.751 576.541 334.217 567.875 334.217H562.141V342.084C562.141 349.017 562.675 350.617 566.541 355.151C586.541 379.551 628.008 390.884 683.741 387.417C729.075 384.617 774.275 373.684 806.808 357.551C823.608 349.284 833.075 342.484 838.541 334.751L842.275 329.417L837.075 310.751C828.141 279.417 823.341 253.951 821.341 227.951L820.541 215.817L809.075 224.884C788.275 241.817 767.875 249.551 746.808 248.617C732.941 248.084 725.875 245.284 717.608 237.284C699.208 219.417 698.008 184.484 714.141 137.684C719.475 122.217 734.141 88.8839 735.608 88.8839C737.341 88.8839 738.141 109.817 736.808 121.017C735.341 134.217 733.741 138.884 726.275 153.551C704.941 195.417 717.741 230.884 754.141 230.751C764.408 230.617 774.541 227.417 791.608 218.751C805.741 211.684 826.008 192.884 838.808 174.884C858.675 147.151 863.208 124.884 850.408 118.351C840.675 113.417 834.675 105.551 824.808 85.4173C811.075 57.2839 800.541 47.1506 776.008 38.3506C770.275 36.3506 762.408 32.7506 758.675 30.4839C739.875 18.8839 711.341 7.81726 688.275 3.41726C675.075 0.750593 650.008 -0.716074 640.808 0.350593Z" fill="white"/>
<path d="M361.475 222.751C358.809 226.751 355.609 241.951 354.409 256.484L353.475 268.084L347.475 269.551C330.275 273.951 314.142 287.951 302.942 307.951C299.342 314.484 294.542 321.151 292.142 323.017C287.475 326.484 270.142 334.884 264.409 336.217C260.809 337.151 260.809 337.151 260.809 349.417C260.809 356.084 261.742 365.684 262.809 370.884C265.475 383.684 274.142 400.884 280.809 406.617C287.342 412.217 300.409 418.617 310.942 421.417C322.009 424.484 342.142 425.417 354.675 423.684C360.542 422.884 365.475 422.484 365.875 422.751C367.742 424.751 347.742 431.417 333.075 433.684L327.342 434.617L327.742 443.951L328.142 453.284L337.475 456.484C350.409 460.884 367.475 464.617 380.142 465.684C410.275 468.084 447.609 456.484 476.142 435.817L486.809 428.084L486.409 420.751C485.475 401.284 476.542 359.684 468.142 335.551C465.475 327.817 460.009 311.951 456.009 300.217C444.275 266.084 424.942 228.884 418.942 228.884C417.875 228.884 415.342 232.617 413.075 237.151C410.942 241.817 406.142 249.551 402.542 254.484C398.809 259.417 393.875 266.484 391.475 270.217C389.075 273.951 386.942 276.751 386.675 276.484C386.409 276.217 386.809 273.951 387.475 271.417C389.742 263.551 388.942 260.351 380.942 244.084C373.609 229.017 367.342 219.551 364.675 219.551C364.009 219.551 362.542 221.017 361.475 222.751Z" fill="white"/>
<path d="M832.541 374.884C790.408 400.484 715.741 417.417 655.475 415.151C614.808 413.551 585.608 405.417 563.075 389.284C559.475 386.751 556.408 384.884 556.141 385.151C556.008 385.417 555.075 389.684 554.275 394.884C552.275 407.817 525.741 511.551 524.541 511.551C523.475 511.551 507.875 481.017 504.808 472.884C503.875 470.351 502.408 467.551 501.475 466.884C500.541 466.084 499.208 463.284 498.275 460.484C497.208 457.284 496.008 455.817 495.075 456.484C494.141 457.017 488.941 460.351 483.475 463.951C463.075 477.284 438.941 486.884 415.875 490.884C392.675 494.884 361.208 492.751 338.141 485.417C332.675 483.684 328.141 482.484 328.008 482.617C327.875 482.751 324.941 499.017 321.475 518.884C318.141 538.617 315.075 555.684 314.675 556.751C314.008 558.884 315.075 558.751 346.141 553.017C435.341 536.484 523.341 528.751 622.808 528.751C719.075 528.751 800.408 535.417 895.475 551.017C934.008 557.284 992.275 568.884 1004.14 572.484C1005.61 572.884 999.341 565.284 990.141 555.551C942.141 504.617 904.808 457.817 865.475 398.884C854.675 382.751 845.475 369.151 844.941 368.617C844.541 368.217 838.941 371.017 832.541 374.884Z" fill="white"/>
<path d="M545.475 543.684C368.675 553.151 204.142 590.351 58.8087 653.551C37.342 662.884 -0.65801 681.151 0.00865638 681.817C0.275323 682.217 21.742 678.217 47.6087 673.017C212.409 640.217 329.609 625.151 484.809 616.617C526.542 614.351 681.075 614.351 725.475 616.617C888.409 624.884 1003.74 638.084 1254.01 677.017C1272.54 679.817 1289.08 682.217 1290.68 682.217C1299.21 682.084 1203.48 644.351 1152.81 627.817C1014.94 582.884 879.209 556.351 731.475 545.417C697.342 542.884 579.875 541.817 545.475 543.684Z" fill="white"/>
<path d="M103.92 707.04V792H88.92V720H51.96V792H36.96V707.04H103.92ZM137.356 820.8H122.956V733.92H136.756V742.32H137.116C139.196 739.28 141.996 736.88 145.516 735.12C149.036 733.28 152.916 732.36 157.156 732.36C161.556 732.36 165.516 733.16 169.036 734.76C172.556 736.36 175.556 738.56 178.036 741.36C180.516 744.08 182.436 747.32 183.796 751.08C185.156 754.76 185.836 758.68 185.836 762.84C185.836 767 185.156 770.96 183.796 774.72C182.516 778.4 180.636 781.64 178.156 784.44C175.676 787.24 172.636 789.48 169.036 791.16C165.516 792.76 161.556 793.56 157.156 793.56C153.316 793.56 149.596 792.76 145.996 791.16C142.476 789.48 139.676 787.12 137.596 784.08H137.356V820.8ZM171.556 762.84C171.556 760.36 171.156 758 170.356 755.76C169.636 753.44 168.556 751.44 167.116 749.76C165.676 748 163.876 746.64 161.716 745.68C159.556 744.64 157.036 744.12 154.156 744.12C151.516 744.12 149.116 744.64 146.956 745.68C144.796 746.64 142.916 748 141.316 749.76C139.796 751.44 138.596 753.44 137.716 755.76C136.916 758 136.516 760.36 136.516 762.84C136.516 765.4 136.916 767.84 137.716 770.16C138.596 772.4 139.796 774.36 141.316 776.04C142.916 777.72 144.796 779.08 146.956 780.12C149.116 781.08 151.516 781.56 154.156 781.56C157.036 781.56 159.556 781.08 161.716 780.12C163.876 779.08 165.676 777.72 167.116 776.04C168.556 774.28 169.636 772.28 170.356 770.04C171.156 767.72 171.556 765.32 171.556 762.84ZM244.931 752.28L214.931 792H200.411V733.92H214.931V772.68L244.931 733.92H259.451V792H244.931V752.28ZM363.809 762.84C363.809 767.4 362.969 771.6 361.289 775.44C359.689 779.2 357.449 782.44 354.569 785.16C351.769 787.88 348.409 790 344.489 791.52C340.649 792.96 336.529 793.68 332.129 793.68C328.049 793.68 324.169 793.04 320.489 791.76C316.889 790.48 313.689 788.68 310.889 786.36C308.169 783.96 305.889 781.12 304.049 777.84C302.289 774.56 301.169 770.92 300.689 766.92H291.569V792H277.169V733.92H291.569V755.52H301.289C302.089 752 303.409 748.84 305.249 746.04C307.089 743.16 309.369 740.72 312.089 738.72C314.809 736.64 317.849 735.04 321.209 733.92C324.649 732.8 328.289 732.24 332.129 732.24C336.529 732.24 340.649 733 344.489 734.52C348.409 735.96 351.769 738.04 354.569 740.76C357.449 743.4 359.689 746.6 361.289 750.36C362.969 754.12 363.809 758.28 363.809 762.84ZM349.649 762.84C349.649 760.36 349.249 758 348.449 755.76C347.649 753.44 346.489 751.44 344.969 749.76C343.449 748 341.609 746.64 339.449 745.68C337.289 744.64 334.849 744.12 332.129 744.12C329.409 744.12 326.969 744.64 324.809 745.68C322.649 746.64 320.809 748 319.289 749.76C317.849 751.44 316.729 753.44 315.929 755.76C315.129 758 314.729 760.36 314.729 762.84C314.729 765.32 315.129 767.72 315.929 770.04C316.729 772.28 317.849 774.28 319.289 776.04C320.809 777.72 322.649 779.08 324.809 780.12C326.969 781.08 329.409 781.56 332.129 781.56C334.849 781.56 337.289 781.08 339.449 780.12C341.689 779.08 343.529 777.72 344.969 776.04C346.489 774.28 347.649 772.28 348.449 770.04C349.249 767.72 349.649 765.32 349.649 762.84ZM371.339 733.92H422.699V745.32H403.859V792H389.459V745.32H371.339V733.92ZM467.22 808.68H454.86V780.48H464.22L482.82 733.92H499.14L516.42 780.48H526.38V808.68H514.02V792H467.22V808.68ZM488.46 754.8L479.1 780.48H502.02L491.58 750.24L488.46 754.8ZM575.29 792L559.93 751.08L543.73 792H528.37L552.13 733.92H568.21L590.65 792H575.29ZM628.313 771.24C625.993 771.24 623.873 771.6 621.953 772.32C620.113 772.96 618.473 774.12 617.033 775.8C615.673 777.4 614.513 779.52 613.553 782.16C612.673 784.8 611.993 788.08 611.513 792H595.673C596.793 784.4 598.953 778.44 602.153 774.12C605.353 769.8 608.993 767.04 613.073 765.84V765.48C609.073 765.08 605.713 763.72 602.993 761.4C600.353 759.08 599.033 755.28 599.033 750C599.033 746.96 599.673 744.44 600.953 742.44C602.233 740.36 603.953 738.68 606.113 737.4C608.273 736.12 610.753 735.24 613.553 734.76C616.433 734.2 619.433 733.92 622.553 733.92H649.313V792H634.913V771.24H628.313ZM613.073 753C613.073 755.88 614.193 757.72 616.433 758.52C618.673 759.32 621.833 759.72 625.913 759.72H634.913V746.04H625.793C621.473 746.04 618.273 746.48 616.193 747.36C614.113 748.16 613.073 750.04 613.073 753ZM730.694 767.28C727.654 767.52 724.854 768.12 722.294 769.08C719.814 769.96 717.574 771.36 715.574 773.28C713.574 775.2 711.814 777.68 710.294 780.72C708.854 783.76 707.654 787.52 706.694 792H690.734C692.574 784.48 695.214 778.2 698.654 773.16C702.094 768.12 706.574 764.2 712.094 761.4L693.134 733.92H709.094L724.214 756.72C726.054 756.32 728.214 756.04 730.694 755.88V733.92H745.094V755.88C747.414 756.04 749.574 756.32 751.574 756.72L766.694 733.92H782.654L763.694 761.4C769.134 764.2 773.574 768.12 777.014 773.16C780.454 778.2 783.134 784.48 785.054 792H769.094C768.134 787.52 766.894 783.76 765.374 780.72C763.854 777.68 762.094 775.2 760.094 773.28C758.094 771.36 755.814 769.96 753.254 769.08C750.774 768.12 748.054 767.52 745.094 767.28V792H730.694V767.28ZM842.822 752.28L812.822 792H798.302V733.92H812.822V772.68L842.822 733.92H857.342V792H842.822V752.28ZM900.86 758.16C904.14 758.16 906.82 757.72 908.9 756.84C910.98 755.96 912.02 754.08 912.02 751.2C912.02 749.52 911.62 748.24 910.82 747.36C910.02 746.4 908.94 745.68 907.58 745.2C906.22 744.72 904.62 744.44 902.78 744.36C900.94 744.28 898.98 744.24 896.9 744.24H889.46V758.16H900.86ZM889.46 781.68H898.22C900.46 781.68 902.58 781.64 904.58 781.56C906.58 781.48 908.3 781.24 909.74 780.84C911.26 780.36 912.46 779.64 913.34 778.68C914.22 777.72 914.66 776.32 914.66 774.48C914.66 772.72 914.22 771.36 913.34 770.4C912.46 769.36 911.26 768.6 909.74 768.12C908.3 767.64 906.58 767.36 904.58 767.28C902.58 767.12 900.46 767.04 898.22 767.04H889.46V781.68ZM875.06 792V733.92H904.1C911.46 733.92 917.02 735.32 920.78 738.12C924.62 740.92 926.54 744.72 926.54 749.52C926.54 751.68 926.18 753.48 925.46 754.92C924.82 756.36 923.9 757.56 922.7 758.52C921.5 759.48 920.1 760.28 918.5 760.92C916.98 761.48 915.34 762 913.58 762.48C915.74 762.64 917.78 763 919.7 763.56C921.62 764.12 923.3 764.96 924.74 766.08C926.18 767.2 927.3 768.64 928.1 770.4C928.98 772.08 929.42 774.12 929.42 776.52C929.42 781.16 927.34 784.92 923.18 787.8C919.02 790.6 913.14 792 905.54 792H875.06ZM1002.92 762.84C1002.92 767.4 1002.08 771.6 1000.4 775.44C998.797 779.2 996.557 782.44 993.677 785.16C990.877 787.88 987.517 790 983.597 791.52C979.757 792.96 975.597 793.68 971.117 793.68C966.637 793.68 962.477 792.96 958.637 791.52C954.797 790 951.437 787.88 948.557 785.16C945.757 782.44 943.517 779.2 941.837 775.44C940.237 771.6 939.437 767.4 939.437 762.84C939.437 758.28 940.237 754.12 941.837 750.36C943.517 746.6 945.757 743.4 948.557 740.76C951.437 738.04 954.797 735.96 958.637 734.52C962.477 733 966.637 732.24 971.117 732.24C975.597 732.24 979.757 733 983.597 734.52C987.517 735.96 990.877 738.04 993.677 740.76C996.557 743.4 998.797 746.6 1000.4 750.36C1002.08 754.12 1002.92 758.28 1002.92 762.84ZM988.637 762.84C988.637 760.36 988.237 758 987.437 755.76C986.637 753.44 985.477 751.44 983.957 749.76C982.517 748 980.677 746.64 978.437 745.68C976.277 744.64 973.837 744.12 971.117 744.12C968.397 744.12 965.957 744.64 963.797 745.68C961.637 746.64 959.797 748 958.277 749.76C956.837 751.44 955.717 753.44 954.917 755.76C954.117 758 953.717 760.36 953.717 762.84C953.717 765.32 954.117 767.72 954.917 770.04C955.717 772.28 956.837 774.28 958.277 776.04C959.797 777.72 961.637 779.08 963.797 780.12C965.957 781.08 968.397 781.56 971.117 781.56C973.837 781.56 976.277 781.08 978.437 780.12C980.677 779.08 982.517 777.72 983.957 776.04C985.477 774.28 986.637 772.28 987.437 770.04C988.237 767.72 988.637 765.32 988.637 762.84ZM1010.36 733.92H1061.72V745.32H1042.88V792H1028.48V745.32H1010.36V733.92ZM1086.8 792H1072.4V733.92H1086.8V756.24H1112.36V733.92H1126.76V792H1112.36V767.52H1086.8V792ZM1158.87 733.92V752.64H1167.75C1172.79 752.64 1177.03 753.08 1180.47 753.96C1183.91 754.76 1186.71 756 1188.87 757.68C1191.03 759.28 1192.59 761.32 1193.55 763.8C1194.51 766.2 1194.99 769 1194.99 772.2C1194.99 778.92 1192.63 783.92 1187.91 787.2C1183.27 790.4 1176.39 792 1167.27 792H1144.47V733.92H1158.87ZM1158.87 781.56H1168.71C1172.31 781.56 1175.19 780.92 1177.35 779.64C1179.59 778.28 1180.71 775.8 1180.71 772.2C1180.71 768.6 1179.55 766.2 1177.23 765C1174.91 763.72 1171.95 763.08 1168.35 763.08H1158.87V781.56ZM1215.51 733.92V792H1201.11V733.92H1215.51ZM1248.18 761.76L1226.94 733.92H1244.1L1257.18 752.4L1270.38 733.92H1286.94L1265.94 761.52L1288.98 792H1271.58L1256.94 771.36L1241.94 792H1225.14L1248.18 761.76Z" fill="white"/>
</svg>
